<?xml version="1.0" standalone="no"?><!DOCTYPE svg PUBLIC "-//W3C//DTD SVG 1.1//EN" "http://www.w3.org/Graphics/SVG/1.1/DTD/svg11.dtd"><svg t="1551972580514" class="icon" style="" viewBox="0 0 1024 1024" version="1.1" xmlns="http://www.w3.org/2000/svg" p-id="1866" xmlns:xlink="http://www.w3.org/1999/xlink" width="200" height="200"><defs><style type="text/css"></style></defs><path d="M131.2 832H128v-15.04c0 5.12 1.28 10.24 3.2 15.04zM252.8 407.68c-0.96 7.36-2.24 14.08-3.52 15.04l3.52-15.04z" fill="#FFD561" p-id="1867"></path><path d="M800 336v16H275.52c-23.68 0-45.44 14.72-50.88 38.08L128.96 803.2c-0.32 1.92-0.96 3.52-0.96 5.12V224h166.08l6.72 3.52 49.6 74.56c7.68 11.2 20.16 17.92 33.28 17.92H784c8.96 0 16 7.04 16 16z" fill="#FFD561" p-id="1868"></path><path d="M958.4 400l-18.24 80H784c-8.96 0-16 7.04-16 16s7.04 16 16 16h148.8l-15.072 64.64L752 576c-8.96 0-16 7.04-16 16s7.04 16 16 16h158.72L896 672h-176c-8.96 0-16 7.04-16 16s7.04 16 16 16h168.64l-14.72 64H688c-8.96 0-16 7.04-16 16s7.04 16 16 16h178.56l-3.84 16a21.44 21.44 0 0 1-19.84 16H332.8c-8.96 0-14.4-7.04-12.16-16L412.8 416l3.52-16c1.6-8.96 10.88-16 19.52-16h510.08c8.96 0 14.4 7.04 12.48 16z" fill="#FFD561" p-id="1869"></path><path d="M982.72 364.48c-8.64-10.56-21.44-12.48-35.2-12.48H832V272c0-26.56-21.44-48-48-48H640v32h144c8.96 0 16 7.04 16 16V352H275.52c-23.68 0-45.44 14.72-50.88 38.08L128.96 803.2c-0.32 1.92-0.96 3.52-0.96 5.12v8.672c0 5.088 1.28 10.208 3.2 15.008h-19.2c-8.96 0-16-7.04-16-16v-640c0-8.96 7.04-16 16-16h182.08l6.72 3.52 49.6 74.56c7.68 11.2 20.16 17.92 33.28 17.92H512V224h-128.32l-6.4-3.52-49.92-74.56C320 134.72 307.52 128 294.08 128H112C85.44 128 64 149.44 64 176v640c0 26.56 21.44 48 48 48h732.48c23.68 0 45.792-20.48 50.912-44.16l95.648-418.88c3.2-13.76 0-25.92-8.32-36.48z m-24.32 35.52l-18.24 80H784c-8.96 0-16 7.04-16 16s7.04 16 16 16h148.8l-15.072 64.64L752 576c-8.96 0-16 7.04-16 16s7.04 16 16 16h158.72L896 672h-176c-8.96 0-16 7.04-16 16s7.04 16 16 16h168.64l-14.72 64H688c-8.96 0-16 7.04-16 16s7.04 16 16 16h178.56l-3.84 16a21.44 21.44 0 0 1-19.84 16h-672c-8.64 0-14.4-7.04-12.16-16l90.56-393.28 3.52-15.04 1.6-7.68c1.6-7.68 8.64-14.08 16.32-15.68 0.96-0.32 2.24-0.32 3.2-0.32h672c8.96 0 14.4 7.04 12.48 16z" fill="#2D2220" p-id="1870"></path><path d="M544 224h64v32h-64z" fill="#2D2220" p-id="1871"></path></svg>